<svg width="80" height="80" viewBox="0 0 80 80" fill="none" xmlns="http://www.w3.org/2000/svg">
<rect y="-16" width="96" height="96" rx="48" fill="#E7F9FF"/>
<path d="M61.3334 15.334H34.6667C33 15.334 31.3334 16.834 31.3334 18.6673V23.684C31.3334 24.884 32.05 25.9173 33 26.5007V45.334C33 47.1673 34.8334 48.6673 36.3334 48.6673H59.6667C61.1667 48.6673 63 47.1673 63 45.334V26.5007C63.95 25.9173 64.6667 24.884 64.6667 23.684V18.6673C64.6667 16.834 63 15.334 61.3334 15.334ZM51.3334 35.334H44.6667C43.75 35.334 43 34.584 43 33.6673C43 32.7507 43.75 32.0007 44.6667 32.0007H51.3334C52.25 32.0007 53 32.7507 53 33.6673C53 34.584 52.25 35.334 51.3334 35.334ZM61.3334 23.6673H34.6667V18.6673H61.3334V23.6673Z" fill="#074F62" fill-opacity="0.33"/>
</svg>
