<svg width="80" height="80" viewBox="0 0 80 80" fill="none" xmlns="http://www.w3.org/2000/svg">
<rect y="-16" width="96" height="96" rx="48" fill="#E7F9FF"/>
<path d="M59.6667 12H36.3334C35.4167 12 34.6667 12.75 34.6667 13.6667C34.6667 14.5833 35.4167 15.3333 36.3334 15.3333H59.6667C60.5834 15.3333 61.3334 14.5833 61.3334 13.6667C61.3334 12.75 60.5834 12 59.6667 12ZM36.3334 52H59.6667C60.5834 52 61.3334 51.25 61.3334 50.3333C61.3334 49.4167 60.5834 48.6667 59.6667 48.6667H36.3334C35.4167 48.6667 34.6667 49.4167 34.6667 50.3333C34.6667 51.25 35.4167 52 36.3334 52ZM61.3334 18.6667H34.6667C32.8334 18.6667 31.3334 20.1667 31.3334 22V42C31.3334 43.8333 32.8334 45.3333 34.6667 45.3333H61.3334C63.1667 45.3333 64.6667 43.8333 64.6667 42V22C64.6667 20.1667 63.1667 18.6667 61.3334 18.6667ZM48 23.25C50.0667 23.25 51.75 24.9333 51.75 27C51.75 29.0667 50.0667 30.75 48 30.75C45.9334 30.75 44.25 29.0667 44.25 27C44.25 24.9333 45.9334 23.25 48 23.25ZM56.3334 40.3333H39.6667V37.8333C39.6667 35.05 45.2167 33.6667 48 33.6667C50.7834 33.6667 56.3334 35.05 56.3334 37.8333V40.3333Z" fill="#074F62" fill-opacity="0.33"/>
</svg>
