<svg width="188" height="48" viewBox="0 0 188 48" fill="none" xmlns="http://www.w3.org/2000/svg">
<path fill-rule="evenodd" clip-rule="evenodd" d="M31.1331 11.5599C31.1535 11.5405 31.1737 11.5208 31.1937 11.5008C32.3824 10.3089 32.3824 8.37647 31.1937 7.1846C30.0198 6.00745 28.1254 5.9929 26.9336 7.14097L26.9315 7.13884L16.2027 17.8722C15.0137 18.6447 13.7884 18.4015 12.8604 17.9149L18.4215 23.491C19.1689 23.449 20.1542 22.5995 20.6136 22.1079L31.1331 11.5599ZM11.7303 17.0962L11.7317 17.0948L11.6162 16.9789C11.6515 17.017 11.6896 17.0562 11.7303 17.0962Z" fill="url(#paint0_linear_471_1799)"/>
<path fill-rule="evenodd" clip-rule="evenodd" d="M36.0673 31.1804C36.1031 31.2203 36.1401 31.2594 36.1784 31.2978C37.367 32.4896 39.2942 32.4896 40.4829 31.2978C41.6568 30.1207 41.6713 28.2213 40.5265 27.0263L40.5308 27.022L29.8264 16.2641C29.0556 15.0711 29.2989 13.8416 29.7848 12.9109L24.2227 18.488C24.264 19.2376 25.1117 20.2262 25.6022 20.687L36.0673 31.1804ZM30.6004 11.7796L30.6019 11.781L30.7173 11.6652C30.6794 11.7006 30.6403 11.7388 30.6004 11.7796Z" fill="url(#paint1_linear_471_1799)"/>
<path fill-rule="evenodd" clip-rule="evenodd" d="M11.7803 16.8282C11.7446 16.7884 11.7076 16.7493 11.6694 16.711C10.4807 15.5192 8.55355 15.5192 7.3649 16.711C6.19099 17.8881 6.17642 19.7875 7.32119 20.9825L7.31691 20.9868L18.0213 31.7446C18.7922 32.9377 18.5488 34.1672 18.0629 35.0979L23.625 29.5207C23.5837 28.7712 22.736 27.7826 22.2456 27.3218L11.7803 16.8282ZM17.2473 36.2292L17.2459 36.2278L17.1304 36.3436C17.1684 36.3081 17.2074 36.27 17.2473 36.2292Z" fill="url(#paint2_linear_471_1799)"/>
<path fill-rule="evenodd" clip-rule="evenodd" d="M16.7865 36.3905C16.7455 36.4274 16.7052 36.4657 16.6658 36.5052C15.4771 37.6971 15.4771 39.6295 16.6658 40.8214C17.84 41.9988 19.735 42.0131 20.9267 40.8643L20.9311 40.8687L31.66 30.1353C33.0024 29.2633 34.3911 29.6857 35.3459 30.2915L29.5894 24.5194C28.8295 24.4419 27.7395 25.3748 27.249 25.8997L16.7865 36.3905Z" fill="url(#paint3_linear_471_1799)"/>
<path d="M59.8477 12.5494H47.4623C46.5268 12.5494 45.7743 13.3243 45.7743 14.2624C45.7743 15.2004 46.5268 15.9549 47.4623 15.9549H51.9568V29.0672C51.9568 30.0052 52.7296 30.7598 53.6652 30.7598C54.6007 30.7598 55.3531 30.0052 55.3531 29.0672V15.9549H59.8477C60.8035 15.9549 61.556 15.2004 61.556 14.2624C61.556 13.3243 60.8035 12.5494 59.8477 12.5494Z" fill="#272828"/>
<path d="M74.8957 24.0303C76.9091 23.0718 78.3123 20.9918 78.3123 18.5855C78.3123 15.2616 75.6278 12.5494 72.3129 12.5494H65.1948C64.605 12.5494 64.0966 12.8553 63.7915 13.3039C63.6085 13.569 63.5068 13.8953 63.5068 14.2624V29.0672C63.5068 30.0052 64.2593 30.7598 65.1948 30.7598C66.1303 30.7598 66.8828 30.0052 66.8828 29.0672V24.6217H71.0519L75.2821 30.1072C75.6075 30.5354 76.1159 30.7598 76.6244 30.7598C76.9904 30.7598 77.3565 30.6578 77.6616 30.4131C78.414 29.8421 78.5361 28.7613 77.9666 28.0272L74.8957 24.0303ZM66.8828 15.9549H72.3129C73.7568 15.9549 74.916 17.1377 74.916 18.5855C74.916 20.0334 73.7568 21.2161 72.3129 21.2161C72.2722 21.2161 71.9061 21.2161 71.8858 21.2161C71.8654 21.2161 71.8654 21.2161 71.8654 21.2161H66.8828V15.9549ZM71.8858 21.2161C71.8654 21.2161 71.8654 21.2161 71.8654 21.2161C71.9061 21.2161 71.9264 21.2161 71.8858 21.2161Z" fill="#272828"/>
<path d="M98.4571 28.2923L90.9729 13.5078C90.9729 13.5282 90.9933 13.5486 90.9933 13.569C90.8916 13.3039 90.7085 13.0796 90.4645 12.8961C90.4442 12.8757 90.4442 12.8757 90.4238 12.8553C90.3832 12.8349 90.3628 12.8145 90.3425 12.8145C90.3018 12.7941 90.2611 12.7737 90.2408 12.7533C90.2205 12.7329 90.2205 12.7329 90.2205 12.7329C90.1594 12.7125 90.1188 12.6921 90.0578 12.6717C89.9561 12.631 89.8544 12.5902 89.7527 12.5698C89.7324 12.5698 89.7324 12.5698 89.712 12.5698C89.6713 12.5698 89.6307 12.5698 89.59 12.5494C89.5697 12.5494 89.5697 12.5494 89.5697 12.5494C89.529 12.5494 89.4883 12.5494 89.4476 12.5494H89.4273C89.407 12.5494 89.3866 12.5494 89.3866 12.5494C88.9189 12.5698 88.5325 12.7737 88.2477 13.0592C88.2274 13.0592 88.2274 13.0796 88.2274 13.0796C88.1867 13.1204 88.1461 13.1408 88.1257 13.1816C88.1257 13.2019 88.1257 13.2019 88.1054 13.2019C88.085 13.2427 88.0647 13.2835 88.0444 13.3039C88.024 13.3243 88.024 13.3243 88.0037 13.3447C87.9834 13.3855 87.963 13.4263 87.9427 13.4671V13.4874L80.4382 28.2923C79.8484 29.4342 80.6823 30.7598 81.9432 30.7598C82.5533 30.7598 83.1634 30.4335 83.4685 29.8421L84.648 27.497H94.2472L95.4471 29.8421C95.8539 30.6782 96.8911 31.0045 97.7249 30.5762C98.5587 30.1684 98.8841 29.1284 98.4571 28.2923ZM91.0339 13.6302C91.0339 13.6302 91.0136 13.6302 91.0136 13.6098C91.0136 13.6098 91.0136 13.5894 91.0136 13.569C91.0136 13.5894 91.0136 13.6098 91.0339 13.6302ZM89.4476 18.0145L92.5186 24.0915H86.3767L89.4476 18.0145Z" fill="#272828"/>
<path d="M116.164 30.1072C116.164 30.0868 116.185 30.0664 116.205 30.046C116.205 30.0256 116.225 30.0256 116.225 30.0052C116.246 29.9848 116.246 29.9645 116.266 29.9441C116.266 29.9237 116.286 29.9237 116.286 29.9033C116.327 29.8625 116.348 29.8013 116.368 29.7605C116.368 29.7605 116.368 29.7605 116.368 29.7401C116.388 29.7197 116.388 29.6993 116.409 29.679C116.409 29.6586 116.409 29.6382 116.429 29.6382C116.429 29.6178 116.429 29.577 116.449 29.5566C116.449 29.5566 116.449 29.5362 116.449 29.5158C116.47 29.4954 116.47 29.475 116.49 29.4342V29.4139C116.49 29.3527 116.51 29.3119 116.51 29.2507C116.51 29.2507 116.51 29.2303 116.531 29.2303C116.531 29.1895 116.531 29.1691 116.531 29.1488C116.531 29.1284 116.531 29.108 116.531 29.108C116.531 29.0876 116.531 29.0672 116.531 29.0468V29.0264C116.531 29.006 116.531 28.9856 116.531 28.9856C116.531 28.9448 116.531 28.9244 116.531 28.904V14.242C116.531 13.3039 115.758 12.5494 114.822 12.5494C113.887 12.5494 113.134 13.3039 113.134 14.242V24.4177L103.616 13.1612C103.291 12.7737 102.823 12.5494 102.294 12.5494C101.257 12.5494 100.566 13.4263 100.606 14.3439V29.0468C100.606 30.0052 101.359 30.7598 102.294 30.7598C103.23 30.7598 104.003 30.0052 104.003 29.0468V18.8914L113.521 30.148C113.521 30.148 113.521 30.1276 113.5 30.1276C113.521 30.148 113.541 30.1684 113.561 30.1888C113.561 30.2092 113.582 30.2092 113.582 30.2092C113.602 30.2295 113.622 30.2499 113.622 30.2703C113.643 30.2703 113.643 30.2703 113.643 30.2703C113.704 30.3315 113.744 30.3723 113.805 30.4131L113.826 30.4335C113.846 30.4539 113.866 30.4539 113.887 30.4743C113.907 30.4947 113.927 30.4947 113.948 30.515C113.968 30.5354 114.009 30.5558 114.029 30.5762C114.049 30.5762 114.049 30.5762 114.07 30.5966C114.09 30.5966 114.09 30.5966 114.11 30.5966C114.11 30.617 114.131 30.617 114.131 30.617H114.151C114.131 30.617 114.131 30.617 114.131 30.617C114.131 30.617 114.131 30.617 114.11 30.5966C114.171 30.617 114.212 30.6374 114.253 30.6578C114.273 30.6578 114.293 30.6782 114.293 30.6782C114.334 30.6782 114.375 30.6986 114.395 30.6986C114.415 30.719 114.436 30.719 114.436 30.719C114.476 30.719 114.517 30.7394 114.537 30.7394C114.558 30.7394 114.578 30.7394 114.578 30.7394C114.639 30.7598 114.68 30.7598 114.721 30.7598H114.741C114.782 30.7598 114.822 30.7598 114.863 30.7598C114.883 30.7598 114.883 30.7598 114.904 30.7598C114.924 30.7598 114.965 30.7598 114.985 30.7598C115.005 30.7598 115.026 30.7598 115.026 30.7598C115.066 30.7598 115.107 30.7394 115.127 30.7394C115.148 30.7394 115.148 30.7394 115.148 30.7394C115.148 30.7394 115.148 30.7394 115.168 30.7394C115.209 30.7394 115.249 30.719 115.29 30.6986H115.31C115.351 30.6782 115.371 30.6782 115.392 30.6578C115.412 30.6578 115.432 30.6578 115.453 30.6578C115.473 30.6374 115.493 30.6374 115.514 30.617C115.534 30.617 115.554 30.5966 115.554 30.5966C115.595 30.5762 115.615 30.5558 115.656 30.5558C115.656 30.5354 115.656 30.5354 115.676 30.5354C115.676 30.5354 115.676 30.5354 115.697 30.5354C115.717 30.515 115.737 30.4947 115.778 30.4743C115.778 30.4539 115.798 30.4539 115.819 30.4335C115.839 30.4335 115.859 30.4131 115.859 30.3927C115.88 30.3927 115.9 30.3723 115.92 30.3723C115.92 30.3519 115.941 30.3315 115.961 30.3111C115.981 30.3111 115.981 30.2907 116.002 30.2703C116.022 30.2499 116.042 30.2295 116.083 30.2092C116.083 30.1888 116.103 30.1684 116.124 30.148C116.124 30.1276 116.144 30.1276 116.164 30.1072Z" fill="#272828"/>
<path d="M131.868 27.3746H124.018L133.19 15.3024L133.211 15.282C133.231 15.2616 133.231 15.2616 133.251 15.2412C133.251 15.2208 133.272 15.2004 133.272 15.2004C133.292 15.18 133.292 15.1596 133.292 15.1596C133.312 15.1392 133.312 15.1392 133.312 15.1188C133.333 15.0984 133.353 15.078 133.353 15.0577C133.373 15.0373 133.373 15.0373 133.373 15.0169C133.394 14.9965 133.394 14.9965 133.394 14.9761C133.414 14.9557 133.414 14.9557 133.414 14.9353C133.414 14.9149 133.434 14.8945 133.434 14.8945C133.434 14.8741 133.455 14.8537 133.455 14.8537V14.8333C133.455 14.8129 133.475 14.7926 133.475 14.7926C133.475 14.7722 133.475 14.7518 133.495 14.7314C133.495 14.711 133.495 14.6906 133.495 14.6906C133.516 14.6702 133.516 14.6498 133.516 14.6498V14.6294C133.516 14.609 133.516 14.5886 133.536 14.5682C133.536 14.5682 133.536 14.5478 133.536 14.5275C133.536 14.5071 133.536 14.4867 133.536 14.4663C133.536 14.4459 133.556 14.4255 133.556 14.4255C133.556 14.4051 133.556 14.3847 133.556 14.3847C133.556 14.3643 133.556 14.3235 133.556 14.3031C133.556 14.2827 133.556 14.2624 133.556 14.2624C133.556 14.242 133.556 14.2216 133.556 14.2012V14.1808C133.556 14.1604 133.556 14.14 133.556 14.14C133.556 14.0992 133.556 14.0788 133.536 14.0584C133.536 14.038 133.536 14.0176 133.536 14.0176C133.536 13.9973 133.536 13.9769 133.536 13.9565C133.536 13.9361 133.516 13.9157 133.516 13.8953C133.516 13.8749 133.516 13.8545 133.516 13.8341C133.495 13.8341 133.495 13.8137 133.495 13.7933C133.495 13.7729 133.475 13.7525 133.475 13.7322C133.475 13.7118 133.455 13.6914 133.455 13.671C133.455 13.6506 133.434 13.6506 133.434 13.6302C133.434 13.6098 133.414 13.5894 133.414 13.569C133.414 13.5486 133.394 13.5282 133.394 13.5078L133.373 13.4874C133.373 13.4671 133.373 13.4671 133.373 13.4671C133.353 13.4467 133.353 13.4467 133.353 13.4263C133.333 13.4059 133.312 13.3855 133.312 13.3651C133.292 13.3447 133.292 13.3447 133.272 13.3243C133.272 13.3039 133.272 13.3039 133.251 13.2835C133.251 13.2631 133.231 13.2427 133.211 13.2223C133.211 13.2223 133.19 13.2019 133.19 13.1816C133.17 13.1816 133.17 13.1612 133.15 13.1612C133.15 13.1408 133.129 13.1204 133.109 13.1C133.089 13.0796 133.089 13.0796 133.068 13.0592L133.048 13.0388C133.028 13.0184 133.007 12.998 132.987 12.9776L132.967 12.9572C132.946 12.9572 132.946 12.9572 132.946 12.9369H132.926C132.926 12.9165 132.906 12.9165 132.885 12.8961C132.865 12.8961 132.865 12.8757 132.845 12.8553C132.824 12.8553 132.804 12.8349 132.804 12.8349C132.784 12.8349 132.763 12.8145 132.763 12.8145C132.743 12.7941 132.743 12.7941 132.723 12.7941C132.702 12.7737 132.682 12.7737 132.682 12.7533C132.661 12.7533 132.661 12.7533 132.661 12.7533C132.641 12.7533 132.641 12.7329 132.621 12.7329C132.6 12.7329 132.6 12.7125 132.58 12.7125C132.56 12.7125 132.56 12.6921 132.539 12.6921C132.519 12.6921 132.499 12.6717 132.499 12.6717C132.478 12.6717 132.458 12.6514 132.438 12.6514C132.417 12.6514 132.417 12.6514 132.397 12.631C132.377 12.631 132.356 12.631 132.336 12.6106C132.316 12.6106 132.316 12.6106 132.295 12.6106C132.275 12.6106 132.255 12.5902 132.234 12.5902C132.214 12.5902 132.194 12.5902 132.173 12.5902C132.173 12.5902 132.153 12.5698 132.133 12.5698C132.112 12.5698 132.092 12.5698 132.072 12.5698C132.051 12.5698 132.031 12.5698 132.031 12.5494C132.011 12.5494 131.99 12.5494 131.99 12.5494C131.97 12.5494 131.929 12.5494 131.909 12.5494C131.889 12.5494 131.868 12.5494 131.868 12.5494H120.581C119.646 12.5494 118.893 13.3243 118.893 14.2624C118.893 15.2004 119.646 15.9549 120.581 15.9549H128.431L119.239 28.0272C119.219 28.0476 119.219 28.068 119.198 28.068C119.178 28.0884 119.178 28.1087 119.158 28.1291C119.158 28.1495 119.137 28.1495 119.137 28.1699C119.137 28.1903 119.117 28.1903 119.117 28.2107C119.097 28.2311 119.097 28.2515 119.076 28.2719C119.076 28.2923 119.076 28.2923 119.056 28.3127C119.056 28.3331 119.036 28.3535 119.036 28.3738C119.036 28.3738 119.015 28.3942 119.015 28.4146C119.015 28.435 118.995 28.435 118.995 28.4554C118.995 28.4758 118.975 28.4962 118.975 28.5166C118.975 28.5166 118.975 28.537 118.954 28.5574C118.954 28.5574 118.954 28.5574 118.954 28.5778C118.954 28.5778 118.954 28.5982 118.954 28.6186C118.934 28.6186 118.934 28.6389 118.934 28.6593C118.934 28.6797 118.934 28.6797 118.913 28.7001C118.913 28.7205 118.913 28.7409 118.913 28.7613V28.7817C118.913 28.8021 118.913 28.8021 118.893 28.8021C118.893 28.8225 118.893 28.8429 118.893 28.8633C118.893 28.8837 118.893 28.904 118.893 28.904C118.893 28.9244 118.893 28.9448 118.893 28.9448C118.893 28.9652 118.893 28.9856 118.893 29.006C118.893 29.0264 118.893 29.0468 118.893 29.0672C118.893 29.0876 118.893 29.108 118.893 29.1284C118.893 29.1691 118.893 29.2099 118.893 29.2303C118.893 29.2507 118.893 29.2507 118.893 29.2507C118.893 29.2711 118.893 29.2711 118.893 29.2711C118.893 29.2915 118.893 29.2915 118.893 29.2915C118.913 29.3323 118.913 29.3731 118.913 29.3935C118.913 29.4139 118.913 29.4139 118.913 29.4342H118.934C118.934 29.4546 118.934 29.4546 118.934 29.475C118.934 29.4954 118.954 29.5158 118.954 29.5566V29.577C118.975 29.5974 118.975 29.5974 118.975 29.5974C118.975 29.6178 118.975 29.6178 118.975 29.6178C118.995 29.6586 118.995 29.679 119.015 29.7197V29.7401L119.036 29.7605C119.036 29.7605 119.036 29.7605 119.036 29.7809C119.036 29.8013 119.056 29.8217 119.076 29.8421C119.076 29.8421 119.076 29.8421 119.076 29.8625C119.076 29.8625 119.097 29.8829 119.097 29.9033C119.117 29.9033 119.117 29.9237 119.137 29.9441C119.137 29.9645 119.158 29.9848 119.158 30.0052C119.178 30.0052 119.178 30.0256 119.178 30.0256C119.198 30.046 119.219 30.0664 119.219 30.0868C119.239 30.1072 119.239 30.1276 119.259 30.1276C119.259 30.148 119.28 30.148 119.28 30.1684C119.3 30.1888 119.32 30.2092 119.341 30.2092C119.341 30.2295 119.361 30.2499 119.361 30.2499C119.381 30.2703 119.381 30.2703 119.402 30.2907C119.422 30.3111 119.422 30.3111 119.442 30.3315C119.463 30.3519 119.463 30.3519 119.483 30.3723C119.483 30.3723 119.483 30.3723 119.503 30.3723V30.3927C119.524 30.3927 119.544 30.4131 119.544 30.4131C119.564 30.4335 119.585 30.4335 119.605 30.4539C119.605 30.4743 119.625 30.4743 119.646 30.4946C119.666 30.4946 119.666 30.4946 119.666 30.4946C119.686 30.515 119.686 30.515 119.707 30.515C119.707 30.5354 119.727 30.5354 119.727 30.5354C119.747 30.5558 119.768 30.5558 119.788 30.5762C119.808 30.5762 119.829 30.5966 119.849 30.5966C119.869 30.617 119.89 30.617 119.91 30.6374C119.93 30.6374 119.93 30.6374 119.93 30.6374C119.951 30.6374 119.971 30.6578 119.971 30.6578C119.991 30.6578 120.012 30.6782 120.052 30.6782C120.052 30.6782 120.052 30.6782 120.073 30.6986C120.073 30.6986 120.093 30.6986 120.113 30.6986C120.134 30.6986 120.154 30.719 120.174 30.719C120.195 30.719 120.195 30.719 120.215 30.719C120.235 30.7394 120.256 30.7394 120.256 30.7394C120.276 30.7394 120.296 30.7394 120.317 30.7394C120.337 30.7598 120.357 30.7598 120.378 30.7598C120.398 30.7598 120.398 30.7598 120.418 30.7598C120.479 30.7598 120.52 30.7598 120.581 30.7598H131.868C132.804 30.7598 133.556 30.0052 133.556 29.0672C133.556 28.1291 132.804 27.3746 131.868 27.3746Z" fill="#272828"/>
<path d="M153.272 28.2923L145.788 13.5078C145.788 13.5282 145.809 13.5486 145.809 13.569C145.707 13.3039 145.524 13.0796 145.28 12.8961C145.259 12.8757 145.259 12.8757 145.239 12.8553C145.198 12.8349 145.178 12.8145 145.158 12.8145C145.117 12.7941 145.076 12.7737 145.056 12.7533C145.036 12.7329 145.036 12.7329 145.036 12.7329C144.975 12.7125 144.934 12.6921 144.873 12.6717C144.771 12.631 144.67 12.5902 144.568 12.5698C144.548 12.5698 144.548 12.5698 144.527 12.5698C144.487 12.5698 144.446 12.5698 144.405 12.5494C144.385 12.5494 144.385 12.5494 144.385 12.5494C144.344 12.5494 144.304 12.5494 144.263 12.5494H144.243C144.222 12.5494 144.202 12.5494 144.202 12.5494C143.734 12.5698 143.348 12.7737 143.063 13.0592C143.043 13.0592 143.043 13.0796 143.043 13.0796C143.002 13.1204 142.961 13.1408 142.941 13.1816C142.941 13.2019 142.941 13.2019 142.921 13.2019C142.9 13.2427 142.88 13.2835 142.86 13.3039C142.839 13.3243 142.839 13.3243 142.819 13.3447C142.799 13.3855 142.778 13.4263 142.758 13.4671V13.4874L135.254 28.2923C134.664 29.4342 135.498 30.7598 136.758 30.7598C137.369 30.7598 137.979 30.4335 138.284 29.8421L139.463 27.497H149.063L150.262 29.8421C150.669 30.6782 151.706 31.0045 152.54 30.5762C153.374 30.1684 153.699 29.1284 153.272 28.2923ZM145.849 13.6302C145.849 13.6302 145.829 13.6302 145.829 13.6098C145.829 13.6098 145.829 13.5894 145.829 13.569C145.829 13.5894 145.829 13.6098 145.849 13.6302ZM144.263 18.0145L147.334 24.0915H141.192L144.263 18.0145Z" fill="#272828"/>
<path d="M168.415 25.6005C168.008 25.6005 167.581 25.7636 167.256 26.0695C166.158 27.1095 164.693 27.7009 163.168 27.7009C159.873 27.7009 157.189 25.0091 157.189 21.7056C157.189 18.402 159.873 15.7102 163.168 15.7102C164.734 15.7102 166.198 16.3016 167.317 17.3824C167.988 18.0349 169.066 18.0145 169.717 17.3416C170.367 16.6686 170.347 15.5879 169.676 14.9353C167.907 13.2427 165.609 12.3047 163.168 12.3047C158.002 12.3047 153.813 16.5259 153.813 21.7056C153.813 26.8852 158.002 31.086 163.168 31.086C165.568 31.086 167.846 30.1888 169.574 28.5574C170.713 27.497 169.961 25.6005 168.415 25.6005Z" fill="#272828"/>
<path d="M185.804 12.5494H173.418C172.483 12.5494 171.73 13.3243 171.73 14.2624C171.73 15.2004 172.483 15.9549 173.418 15.9549H177.913V29.0672C177.913 30.0052 178.686 30.7598 179.621 30.7598C180.557 30.7598 181.309 30.0052 181.309 29.0672V15.9549H185.804C186.76 15.9549 187.512 15.2004 187.512 14.2624C187.512 13.3243 186.76 12.5494 185.804 12.5494Z" fill="#272828"/>
<defs>
<linearGradient id="paint0_linear_471_1799" x1="29.8348" y1="5.82566" x2="15.1472" y2="20.5133" gradientUnits="userSpaceOnUse">
<stop stop-color="#78DBF8"/>
<stop offset="0.690625" stop-color="#50BEF2"/>
<stop offset="1" stop-color="#42B4F0"/>
</linearGradient>
<linearGradient id="paint1_linear_471_1799" x1="41.8735" y1="29.9071" x2="27.173" y2="15.2067" gradientUnits="userSpaceOnUse">
<stop stop-color="#FAE267"/>
<stop offset="0.651042" stop-color="#F7D14E"/>
<stop offset="1" stop-color="#F6C841"/>
</linearGradient>
<linearGradient id="paint2_linear_471_1799" x1="5.97427" y1="18.1017" x2="20.6747" y2="32.8021" gradientUnits="userSpaceOnUse">
<stop stop-color="#3FB3B7"/>
<stop offset="0.690625" stop-color="#309599"/>
<stop offset="1" stop-color="#278589"/>
</linearGradient>
<linearGradient id="paint3_linear_471_1799" x1="18.027" y1="42.1825" x2="32.718" y2="27.4915" gradientUnits="userSpaceOnUse">
<stop stop-color="#E95F45"/>
<stop offset="0.739583" stop-color="#D83F2E"/>
<stop offset="1" stop-color="#D23426"/>
</linearGradient>
</defs>
</svg>
