<svg width="15" height="16" viewBox="0 0 15 16" fill="none" xmlns="http://www.w3.org/2000/svg">
<path d="M6.66667 4.66667V8.83333L10.2083 10.9333L10.85 9.86667L7.91667 8.125V4.66667H6.66667ZM15 6.33333V0.5L12.8 2.7C11.45 1.34167 9.575 0.5 7.5 0.5C3.35833 0.5 0 3.85833 0 8C0 12.1417 3.35833 15.5 7.5 15.5C11.6417 15.5 15 12.1417 15 8H13.3333C13.3333 11.2167 10.7167 13.8333 7.5 13.8333C4.28333 13.8333 1.66667 11.2167 1.66667 8C1.66667 4.78333 4.28333 2.16667 7.5 2.16667C9.10833 2.16667 10.5667 2.825 11.625 3.875L9.16667 6.33333H15Z" fill="#349F6E"/>
</svg>
