<svg width="277" height="240" viewBox="0 0 277 240" fill="none" xmlns="http://www.w3.org/2000/svg">
<path d="M26.5 54L5.84038 90.2805C2.23711 96.6083 2.3577 104.394 6.1552 110.607L31.7175 152.43C35.3508 158.375 41.8156 162 48.7824 162H93" stroke="#E09D10" stroke-dasharray="6 6"/>
<path d="M253 169L271.42 133.774C274.853 127.208 274.375 119.282 270.178 113.177L245.77 77.6704C242.039 72.2427 235.875 69 229.289 69H187.5" stroke="#E09D10" stroke-dasharray="6 6"/>
<g filter="url(#filter0_d_202_1657)">
<path d="M179.105 42C181.977 42 184.629 43.5394 186.053 46.0334L223.735 112.033C225.139 114.492 225.139 117.508 223.735 119.967L186.053 185.967C184.629 188.461 181.977 190 179.105 190H103.895C101.023 190 98.3711 188.461 96.9471 185.967L59.2647 119.967C57.8612 117.508 57.8612 114.492 59.2647 112.033L96.9471 46.0334C98.3711 43.5394 101.023 42 103.895 42L179.105 42Z" fill="white"/>
</g>
<g opacity="0.66">
<path d="M167.667 116C167.667 130.72 155.72 142.666 141 142.666C126.28 142.666 117.293 127.84 117.293 127.84M117.293 127.84H129.347M117.293 127.84V141.173M114.333 116C114.333 101.28 126.173 89.333 141 89.333C158.787 89.333 167.667 104.16 167.667 104.16M167.667 104.16V90.8263M167.667 104.16H155.827" stroke="#F7C764" stroke-width="5" stroke-linecap="round" stroke-linejoin="round"/>
</g>
<path d="M249.642 156.5C252.316 156.5 254.788 157.924 256.13 160.237L273.24 189.737C274.589 192.064 274.589 194.936 273.24 197.263L256.13 226.763C254.788 229.076 252.316 230.5 249.642 230.5H215.358C212.684 230.5 210.212 229.076 208.87 226.763L191.76 197.263C190.411 194.936 190.411 192.064 191.76 189.737L208.87 160.237C210.212 157.924 212.684 156.5 215.358 156.5L249.642 156.5Z" fill="#FEF6E6" stroke="#F0F0F0"/>
<g opacity="0.66">
<path fill-rule="evenodd" clip-rule="evenodd" d="M240.004 179.205C240.038 179.175 240.07 179.143 240.103 179.111C241.427 177.787 241.427 175.639 240.103 174.315C238.794 173.007 236.683 172.991 235.355 174.268L235.352 174.265L223.398 186.191C222.074 187.049 220.709 186.779 219.675 186.238L225.87 192.434C226.703 192.387 227.801 191.443 228.313 190.897L240.004 179.205ZM218.415 185.328L218.417 185.327L218.289 185.198C218.328 185.24 218.37 185.284 218.415 185.328Z" fill="url(#paint0_linear_202_1657)"/>
<path fill-rule="evenodd" clip-rule="evenodd" d="M245.578 201.038C245.6 201.061 245.622 201.084 245.644 201.106C246.968 202.431 249.115 202.431 250.44 201.106C251.749 199.797 251.764 197.685 250.485 196.357L250.488 196.355L238.562 184.401C237.703 183.077 237.974 181.712 238.514 180.678L232.319 186.873C232.365 187.706 233.309 188.804 233.855 189.316L245.578 201.038ZM239.424 179.418L239.426 179.42L239.554 179.292C239.512 179.331 239.469 179.373 239.424 179.418Z" fill="url(#paint1_linear_202_1657)"/>
<path fill-rule="evenodd" clip-rule="evenodd" d="M218.442 184.999C218.411 184.966 218.38 184.934 218.348 184.902C217.024 183.577 214.877 183.577 213.552 184.902C212.244 186.21 212.228 188.322 213.506 189.65L213.503 189.653L225.429 201.606C226.287 202.931 226.017 204.296 225.476 205.33L231.672 199.134C231.625 198.302 230.681 197.204 230.135 196.692L218.442 184.999ZM224.566 206.59L224.564 206.588L224.436 206.716C224.478 206.677 224.522 206.635 224.566 206.59Z" fill="url(#paint2_linear_202_1657)"/>
<path fill-rule="evenodd" clip-rule="evenodd" d="M224.042 206.761C223.994 206.803 223.948 206.847 223.902 206.893C222.578 208.217 222.578 210.364 223.902 211.689C225.211 212.998 227.323 213.013 228.651 211.735L228.656 211.74L240.609 199.814C241.934 198.956 243.299 199.226 244.333 199.767L238.137 193.571C237.305 193.618 236.207 194.562 235.695 195.108L224.042 206.761ZM245.592 200.677L245.591 200.678L245.719 200.807C245.68 200.764 245.638 200.721 245.592 200.677Z" fill="url(#paint3_linear_202_1657)"/>
</g>
<path d="M66.6418 2.5C69.316 2.5 71.7878 3.92387 73.1295 6.23711L90.2395 35.7371C91.5892 38.0642 91.5892 40.9358 90.2395 43.2629L73.1295 72.7629C71.7878 75.0761 69.316 76.5 66.6418 76.5H32.3582C29.684 76.5 27.2122 75.0761 25.8705 72.7629L8.76048 43.2629C7.4108 40.9358 7.4108 38.0642 8.76049 35.7371L25.8705 6.23711C27.2122 3.92387 29.684 2.5 32.3582 2.5L66.6418 2.5Z" fill="#FEF6E6" stroke="#F0F0F0"/>
<g clip-path="url(#clip0_202_1657)">
<path d="M31.5604 30.1443C31.4374 30.0218 31.118 29.6284 31.5604 29.4807C32.0028 29.3336 39.4758 27.9817 46.2356 28.8422C46.2356 28.8422 47.6118 28.9652 47.3904 30.6603L41.2453 30.4641C41.2453 30.4641 34.7068 39.4337 34.1414 41.375L31.5604 41.252C31.5604 41.252 34.633 35.3049 38.4926 30.7342C38.4926 30.7342 38.5903 30.439 37.7302 30.4641C36.8701 30.4886 32.9122 31.1519 32.7159 31.1519C32.5191 31.1519 31.9537 30.5866 31.5604 30.1443Z" fill="#E2221D"/>
<path d="M42.5915 38.8931C42.5915 38.8931 41.3587 39.9305 40.7974 40.1504C40.2357 40.3697 39.2592 40.297 39.845 39.5155C40.4308 38.7346 43.4585 36.2207 44.0196 36.1234C44.5815 36.0255 44.8008 36.4893 44.4589 36.9771C44.1176 37.4654 43.6166 38.0877 42.5915 38.8931ZM68.7256 45.6169C67.9685 44.9581 63.7945 44.0794 62.5976 43.9088C61.402 43.7375 62.0364 43.2497 62.0364 43.2497C63.5253 41.4683 66.9188 38.149 67.7733 37.4413C68.6277 36.7332 67.3341 36.4401 66.6262 36.2941C65.9178 36.1475 65.6252 36.5626 65.6252 36.5626C64.3069 37.8072 61.2135 40.2576 61.2135 40.2576C59.4559 41.2682 59.7418 40.0038 60.1078 39.4914C60.4741 38.979 62.085 37.0995 62.9641 36.2941C63.8432 35.4887 62.5003 35.2688 62.0118 35.1714C61.5239 35.0735 61.3527 35.0735 60.8647 35.6027C60.3763 36.1324 58.0816 38.8079 57.2759 39.5401C56.4703 40.2723 56.0063 40.8093 55.274 40.4189C54.5417 40.0279 54.6881 39.5155 56.5682 37.1723C58.4476 34.8296 60.6935 33.3411 61.646 32.4624C62.5976 31.5836 60.0097 31.2665 59.3754 31.657C58.7408 32.0474 53.5405 37.2215 52.9548 37.7585C52.3689 38.2954 50.7334 40.1744 50.0983 39.8326C49.4639 39.4914 50.2449 38.5393 50.2449 38.5393C51.7098 36.4646 55.5913 32.7063 56.3969 32.0961C57.2026 31.4863 57.178 30.9735 56.0305 30.7296C54.8834 30.4857 54.4928 30.9006 54.1023 31.2418C53.7117 31.5836 51.7585 33.6582 50.5623 34.9658C49.366 36.2737 46.2902 39.1005 45.3866 39.8819C44.4836 40.6627 44.2396 40.2576 44.2396 40.2576C43.8243 39.8038 44.7034 39.0277 45.5091 38.4173C46.3144 37.8072 47.0467 36.6359 45.8752 35.2448C44.7034 33.8535 43.4585 34.1707 43.4585 34.1707C40.6261 35.3667 38.8686 37.5229 38.1849 38.184C37.1106 39.223 38.8686 41.1264 39.6645 41.5902C40.4596 42.0538 42.1434 41.0532 42.1434 41.0532C42.6591 42.249 44.3128 41.8828 45.2406 41.5415C46.1682 41.1997 48.0723 40.0279 48.0723 40.0279C48.1456 41.0045 48.9754 41.3744 48.9754 41.3744C51.4166 41.9564 53.0767 40.1504 53.0767 40.1504C53.2967 41.4436 54.8348 41.9074 54.8348 41.9074C56.9829 42.2731 58.155 41.1505 58.155 41.1505C59.0582 42.371 60.5228 41.7366 60.5228 41.7366C60.0097 42.4443 59.3266 43.4324 59.3266 43.4324C44.7888 41.7854 30.6168 45.3972 29.8356 45.5925C29.0546 45.7876 29.6163 46.3006 30.4215 46.6664C31.2272 47.0327 31.8622 46.7642 31.8622 46.7642C46.8394 43.579 58.3256 44.7382 58.3256 44.7382C58.3256 44.7382 57.0806 46.7884 56.8853 47.1054C56.6902 47.4233 56.5682 47.7404 56.91 47.8137C57.2513 47.8869 58.6429 48.0088 58.6429 48.0088L60.5228 45.1046C63.9159 45.495 66.0158 46.4225 67.1875 46.7884C68.359 47.1547 68.3103 47.0327 68.7256 46.4958C69.1403 45.9588 68.7256 45.6169 68.7256 45.6169Z" fill="#E2221D"/>
<path d="M31.1253 29.6424C31.0023 29.5195 30.683 29.1264 31.1253 28.9788C31.5677 28.8317 39.0407 27.48 45.8003 28.3402C45.8003 28.3402 47.1768 28.4632 46.9558 30.1585L40.8107 29.9616C40.8107 29.9616 34.2718 38.932 33.7063 40.873L31.1253 40.75C31.1253 40.75 34.198 34.8029 38.0575 30.2322C38.0575 30.2322 38.1559 29.937 37.2952 29.9616C36.435 29.9863 32.4776 30.6499 32.2808 30.6499C32.084 30.6499 31.5186 30.0847 31.1253 29.6424Z" fill="#231F20"/>
<path d="M42.1571 38.3922C42.1571 38.3922 40.9242 39.4295 40.3624 39.6488C39.8011 39.8686 38.8249 39.7953 39.4106 39.0146C39.9964 38.2336 43.0236 35.7198 43.5852 35.6225C44.1465 35.5246 44.3663 35.9883 44.0245 36.4761C43.6826 36.9644 43.182 37.5867 42.1571 38.3922ZM68.2906 45.116C67.5341 44.4571 63.3596 43.5784 62.1632 43.4078C60.967 43.2366 61.602 42.7488 61.602 42.7488C63.0909 40.9666 66.4845 37.648 67.3389 36.9403C68.1933 36.2322 66.8995 35.9391 66.1912 35.7931C65.4834 35.6465 65.1908 36.0616 65.1908 36.0616C63.8725 37.3062 60.779 39.7566 60.779 39.7566C59.0214 40.7672 59.3068 39.5028 59.6733 38.9904C60.0392 38.4775 61.6506 36.5985 62.5297 35.7931C63.4082 34.9877 62.0658 34.7678 61.5774 34.6704C61.0894 34.5725 60.9184 34.5725 60.4298 35.1017C59.9418 35.6314 57.6467 38.3069 56.841 39.0391C56.0358 39.7713 55.572 40.3082 54.8396 39.9179C54.1071 39.5269 54.2531 39.0146 56.1332 36.6714C58.0132 34.3286 60.2591 32.8401 61.2114 31.9614C62.1632 31.0826 59.5754 30.7655 58.9409 31.156C58.3059 31.5464 53.1062 36.7205 52.5203 37.2575C51.9345 37.794 50.2985 39.6734 49.6639 39.3316C49.0289 38.9904 49.8105 38.0383 49.8105 38.0383C51.2753 35.9637 55.1568 32.2054 55.9626 31.5951C56.7682 30.9853 56.7437 30.4725 55.596 30.2286C54.4491 29.9847 54.058 30.3991 53.6675 30.7409C53.2769 31.0826 51.324 33.1573 50.1279 34.4649C48.9316 35.7727 45.8553 38.5995 44.9522 39.3808C44.0491 40.1618 43.8045 39.7566 43.8045 39.7566C43.3894 39.3028 44.2685 38.5261 45.0742 37.9164C45.8798 37.3062 46.6122 36.1349 45.4406 34.7438C44.2685 33.3526 43.0236 33.6698 43.0236 33.6698C40.1917 34.8657 38.4337 37.0219 37.7505 37.683C36.6762 38.7214 38.4342 40.6254 39.2295 41.0892C40.0252 41.5529 41.7084 40.5521 41.7084 40.5521C42.2241 41.7481 43.8779 41.3817 44.8056 41.0405C45.7338 40.6987 47.6378 39.5269 47.6378 39.5269C47.7107 40.5035 48.541 40.8735 48.541 40.8735C50.9822 41.4551 52.6422 39.6488 52.6422 39.6488C52.8622 40.9426 54.3997 41.4064 54.3997 41.4064C56.5484 41.7721 57.7199 40.6495 57.7199 40.6495C58.6236 41.87 60.0879 41.2357 60.0879 41.2357C59.5754 41.9433 58.8917 42.9315 58.8917 42.9315C44.3543 41.2844 30.1823 44.8962 29.4013 45.0915C28.6201 45.2867 29.1814 45.7996 29.987 46.1655C30.7929 46.5318 31.4273 46.2632 31.4273 46.2632C46.4049 43.078 57.8912 44.2372 57.8912 44.2372C57.8912 44.2372 56.6457 46.2874 56.4504 46.6045C56.2553 46.9222 56.1332 47.2395 56.475 47.3127C56.8169 47.3858 58.2085 47.5078 58.2085 47.5078L60.0879 44.6037C63.4815 44.994 65.5813 45.9216 66.7531 46.2874C67.9247 46.6537 67.876 46.5318 68.2906 45.9949C68.7057 45.4578 68.2906 45.116 68.2906 45.116Z" fill="#231F20"/>
<path d="M29.6207 49.8523H29.9039C30.0552 49.8523 30.1598 49.6875 30.1598 49.5252C30.1598 49.3268 30.106 49.1583 29.8767 49.1583H29.6207V49.8523ZM29.1118 48.7841H30.0285C30.4935 48.7841 30.6755 49.0673 30.6755 49.5121C30.6755 49.7886 30.5945 50.226 29.9981 50.226H29.6207V51.2168H29.1118V48.7841Z" fill="#231F20"/>
<path d="M32.5252 50.0001C32.5252 49.3768 32.4879 49.1072 32.2015 49.1072C31.9153 49.1072 31.878 49.3768 31.878 50.0001C31.878 50.6235 31.9153 50.8931 32.2015 50.8931C32.4879 50.8931 32.5252 50.6235 32.5252 50.0001ZM31.3623 50.0001C31.3623 49.3569 31.3623 48.7435 32.2015 48.7435C33.0408 48.7435 33.0408 49.3569 33.0408 50.0001C33.0408 50.6365 33.0408 51.2568 32.2015 51.2568C31.3623 51.2568 31.3623 50.6365 31.3623 50.0001Z" fill="#231F20"/>
<path d="M33.6333 48.7838H34.1557L34.4725 50.4922H34.4787L34.8629 48.7838H35.4629L35.8268 50.4922H35.8336L36.1367 48.7838H36.6356L36.0965 51.2158H35.5336L35.1531 49.4375H35.1463L34.7248 51.2158H34.1724L33.6333 48.7838Z" fill="#231F20"/>
<path d="M37.2485 51.2168V48.7847H38.5762V49.1583H37.7574V49.7581H38.5123V50.1318H37.7574V50.8426H38.6029V51.2168H37.2485Z" fill="#231F20"/>
<path d="M39.8366 49.8356H40.0621C40.2642 49.8356 40.3217 49.6335 40.3217 49.4786C40.3217 49.2461 40.2239 49.1587 40.0621 49.1587H39.8366V49.8356ZM39.8366 51.2168H39.3276V48.7846H40.268C40.615 48.7846 40.8375 49.007 40.8375 49.4211C40.8375 49.7314 40.7161 49.9637 40.3857 50.0176V50.024C40.4966 50.0375 40.8269 50.0642 40.8269 50.5023C40.8269 50.6572 40.8375 51.1158 40.8841 51.2168H40.3857C40.3181 51.0686 40.3317 50.9037 40.3317 50.7452C40.3317 50.4557 40.359 50.2093 39.9678 50.2093H39.8366V51.2168Z" fill="#231F20"/>
<path d="M43.9063 50.0001C43.9063 49.3768 43.8693 49.1072 43.5828 49.1072C43.2964 49.1072 43.2593 49.3768 43.2593 50.0001C43.2593 50.6235 43.2964 50.8931 43.5828 50.8931C43.8693 50.8931 43.9063 50.6235 43.9063 50.0001ZM42.7437 50.0001C42.7437 49.3569 42.7437 48.7435 43.5828 48.7435C44.4221 48.7435 44.4221 49.3569 44.4221 50.0001C44.4221 50.6365 44.4221 51.2568 43.5828 51.2568C42.7437 51.2568 42.7437 50.6365 42.7437 50.0001Z" fill="#231F20"/>
<path d="M45.2207 51.2168V48.7847H46.4844V49.1583H45.7295V49.7817H46.4511V50.1554H45.7295V51.2168H45.2207Z" fill="#231F20"/>
<path d="M48.9437 51.2568C48.3134 51.2568 48.1956 50.8864 48.2228 50.4651H48.7312C48.7312 50.698 48.7416 50.8931 49.0212 50.8931C49.1929 50.8931 49.2772 50.7817 49.2772 50.6168C49.2772 50.1787 48.2532 50.152 48.2532 49.4277C48.2532 49.0472 48.4348 48.7437 49.0548 48.7437C49.5506 48.7437 49.796 48.966 49.7627 49.4748H49.2672C49.2672 49.2932 49.2369 49.1079 49.0311 49.1079C48.8662 49.1079 48.7683 49.1984 48.7683 49.3669C48.7683 49.8286 49.7929 49.7883 49.7929 50.5529C49.7929 51.1825 49.3312 51.2568 48.9437 51.2568Z" fill="#231F20"/>
<path d="M50.561 48.7836H51.07V51.2158H50.561V48.7836Z" fill="#231F20"/>
<path d="M51.8921 51.2168V48.7847H52.7109L53.0916 50.4385H53.0983L53.503 48.7847H54.2946V51.2168H53.7993V49.3405H53.7925L53.3241 51.2168H52.8392L52.3943 49.3405H52.3874V51.2168H51.8921Z" fill="#231F20"/>
<path d="M55.6251 49.8523H55.9085C56.0602 49.8523 56.1644 49.6875 56.1644 49.5252C56.1644 49.3268 56.1106 49.1583 55.8811 49.1583H55.6251V49.8523ZM55.1162 48.7841H56.0329C56.4978 48.7841 56.6801 49.0673 56.6801 49.5121C56.6801 49.7886 56.5989 50.226 56.0027 50.226H55.6251V51.2168H55.1162V48.7841Z" fill="#231F20"/>
<path d="M57.394 51.2168V48.7847H57.9029V50.8128H58.6642V51.2168H57.394Z" fill="#231F20"/>
<path d="M59.2915 48.7836H59.8004V51.2158H59.2915V48.7836Z" fill="#231F20"/>
<path d="M60.6084 50.0001C60.6084 49.3569 60.6084 48.7435 61.4477 48.7435C61.9665 48.7435 62.1752 49.0298 62.1549 49.5522H61.6564C61.6564 49.2286 61.5995 49.1072 61.4477 49.1072C61.1613 49.1072 61.1241 49.3768 61.1241 50.0001C61.1241 50.6235 61.1613 50.8931 61.4477 50.8931C61.6831 50.8931 61.6732 50.5895 61.6801 50.3974H62.1821C62.1821 51.0479 61.9225 51.2568 61.4477 51.2568C60.6084 51.2568 60.6084 50.6365 60.6084 50.0001Z" fill="#231F20"/>
<path d="M62.9102 48.7836H63.419V51.2158H62.9102V48.7836Z" fill="#231F20"/>
<path d="M65.7 48.7838V49.1878H65.1335V51.2158H64.6251V49.1878H64.0586V48.7838H65.7Z" fill="#231F20"/>
<path d="M66.788 50.3737L66.1514 48.7836H66.7073L67.0712 49.811L67.4586 48.7836H67.9774L67.2969 50.3737V51.2158H66.788V50.3737Z" fill="#231F20"/>
</g>
<defs>
<filter id="filter0_d_202_1657" x="12.584" y="0.372093" width="257.832" height="239.256" filterUnits="userSpaceOnUse" color-interpolation-filters="sRGB">
<feFlood flood-opacity="0" result="BackgroundImageFix"/>
<feColorMatrix in="SourceAlpha" type="matrix" values="0 0 0 0 0 0 0 0 0 0 0 0 0 0 0 0 0 0 127 0" result="hardAlpha"/>
<feOffset dy="4"/>
<feGaussianBlur stdDeviation="22.814"/>
<feComposite in2="hardAlpha" operator="out"/>
<feColorMatrix type="matrix" values="0 0 0 0 0.525 0 0 0 0 0.525 0 0 0 0 0.525 0 0 0 0.16 0"/>
<feBlend mode="normal" in2="BackgroundImageFix" result="effect1_dropShadow_202_1657"/>
<feBlend mode="normal" in="SourceGraphic" in2="effect1_dropShadow_202_1657" result="shape"/>
</filter>
<linearGradient id="paint0_linear_202_1657" x1="238.569" y1="172.781" x2="222.219" y2="189.132" gradientUnits="userSpaceOnUse">
<stop stop-color="#78DBF8"/>
<stop offset="0.690625" stop-color="#50BEF2"/>
<stop offset="1" stop-color="#42B4F0"/>
</linearGradient>
<linearGradient id="paint1_linear_202_1657" x1="251.972" y1="199.573" x2="235.621" y2="183.222" gradientUnits="userSpaceOnUse">
<stop stop-color="#FAE267"/>
<stop offset="0.651042" stop-color="#F7D14E"/>
<stop offset="1" stop-color="#F6C841"/>
</linearGradient>
<linearGradient id="paint2_linear_202_1657" x1="212.019" y1="186.435" x2="228.37" y2="202.786" gradientUnits="userSpaceOnUse">
<stop stop-color="#3FB3B7"/>
<stop offset="0.690625" stop-color="#309599"/>
<stop offset="1" stop-color="#278589"/>
</linearGradient>
<linearGradient id="paint3_linear_202_1657" x1="225.437" y1="213.224" x2="241.788" y2="196.872" gradientUnits="userSpaceOnUse">
<stop stop-color="#E95F45"/>
<stop offset="0.739583" stop-color="#D83F2E"/>
<stop offset="1" stop-color="#D23426"/>
</linearGradient>
<clipPath id="clip0_202_1657">
<rect width="40" height="23.2727" fill="white" transform="translate(29 28)"/>
</clipPath>
</defs>
</svg>
