<svg width="48" height="48" viewBox="0 0 48 48" fill="none" xmlns="http://www.w3.org/2000/svg">
<rect x="1" y="1" width="46" height="46" rx="23" fill="#E7F9FF"/>
<path d="M24 19V15H14V33H34V19H24ZM18 31H16V29H18V31ZM18 27H16V25H18V27ZM18 23H16V21H18V23ZM18 19H16V17H18V19ZM22 31H20V29H22V31ZM22 27H20V25H22V27ZM22 23H20V21H22V23ZM22 19H20V17H22V19ZM32 31H24V29H26V27H24V25H26V23H24V21H32V31ZM30 23H28V25H30V23ZM30 27H28V29H30V27Z" fill="#0B7F9D"/>
<rect x="1" y="1" width="46" height="46" rx="23" stroke="#E7F9FF" stroke-width="2"/>
</svg>
